<?xml version="1.0" encoding="utf-8"?>
<!-- Generator: Adobe Illustrator 14.0.0, SVG Export Plug-In . SVG Version: 6.00 Build 43363)  -->
<!DOCTYPE svg PUBLIC "-//W3C//DTD SVG 1.1//EN" "http://www.w3.org/Graphics/SVG/1.1/DTD/svg11.dtd">
<svg version="1.1" id="Layer_1" xmlns="http://www.w3.org/2000/svg" xmlns:xlink="http://www.w3.org/1999/xlink" x="0px" y="0px"
	 width="612px" height="792px" viewBox="0 0 612 792" enable-background="new 0 0 612 792" xml:space="preserve">
<path d="M416.4,336.6c-3.4-5.8-9.4-10.3-15.6-11.8c0.4-3.1,1.4-6.8,0-9.8c-2-4.5-6.2-6.1-10.5-7c-10.5-0.8-21.3-0.9-27.9,8.4
	c-2.5,2.3-3.5,7.6-8.1,5.5c7.1-7.9,11.7-16.9,15.1-26.4c10.2-29.7,1.1-61.6-19.7-83.5c-12.9-10.6-27.9-16.8-43.4-20.4
	c-12-2.4-27.5-3.4-37.2,4.6c-3.5,3.9-4.2,9.7-3.4,15.3c2,3,5.1,5.5,7.9,7.5c7,5.3,14.9,8.7,21.9,13.7c-1,2.6-3.9,4.7-6.3,6
	c-2.6,0.9-2.9-1.9-5-2.9c-5.356-3.116-13.644-2.527-19.062,0.276c-1.377,0.644-2.531,1.642-3.375,2.536
	c-2.618,0.58-5.916-0.484-7.563,1.988c-3.3,1.9-3.7,5.7-3.4,9.1c0.1,2.2,1.8,3.7,2.7,5.5c-7,3.3-10.6,10.4-11.3,17.5
	c-1.6-0.5-3.2,0.7-3.9,2.2c-1.1-2.5-3.1-5.1-3.3-7.7c7.3-5.9,14.5-14.3,12.7-24.7c-1.8-6.7-9-11.5-15.1-13.4
	c0.7-7-3.9-12.3-9.4-15.4c-6.2-2.5-11.1,1.8-14.9,6.2c-3.8-0.5-7.9-0.3-11,1.5c-5.3,3.5-6.2,9.2-6.2,15.1
	c-6.6,6.7-4.1,18.8-1.2,26.6c2.7,6.6,9.2,12,16.3,12.8c10.7,20.5,21.2,41.3,33.6,60.9c-8.6,6.4-16.9,15.1-20.4,24.7
	c-2.8,7.4-1.9,16.8-0.7,24.3c-5.3-2.3-10.1,0.9-14,4.3c-0.6-5.7-1.8-11.3-6.4-15.4c-7.9-8.4-21.2-9-31.7-6
	c-9.7,3.3-18.8,12.8-20.4,23.1c-5,20.4,0.7,40,16.5,53.5c10.5,6.9,18.4,19.3,31,21.6c10.8,0.7,21.3-2.7,27.6-11.5
	c3.9-8,0.4-17-3.6-23.8c4-11.6,15.5-16,26.9-16.3c7.5,3.3,16.3,5.5,24.9,3.8c3.6,2.1,6.2,5.8,8.9,8.9c0,4.6-0.7,8.9-2.1,13
	c-4.8,4.8-8.9,9.9-9.9,16.3c-1,10.3,1.6,20.2,9.6,26.6c8.4,7.2,21.9,9.4,32.2,4.8c9.5-6,19.5-11.2,29.7-15.6
	c16.2-8.5,21.6-26.3,19.5-43.9c-2.4-12.7-13.7-25.1-26.7-27.6c-8.9-1.5-16.5,2.5-21.8,9.4c0.1-5-3.3-8.4-6.5-12
	c1-1.2,2.4-2.2,3.1-3.4c2.4-3.7,1.9-9.8-0.4-13.4c-2.3-2.9-5.1-5.5-8.9-5.1c-1.3-2.2-1.9-4.7-2.4-7.2c-0.1-2.9-1-6.8,0.7-9.3
	c19.7-2.1,40.1-2.8,60.5-3.4c3.7,4.4,8.7,8,13.9,9.8c4.8,1.8,10.3-0.7,14.4-3.6c4.8,2,11.8,1.7,16.3-0.7c3.1-2.1,5.9-5.1,6.2-8.8
	c1.5-1.1,4,0.1,5.3-1.2C416.3,348.9,416.9,342.6,416.4,336.6z"/>
<path fill="#00A1E4" d="M329.5,263.5c0.75-3.75-2.75-4-4.5-4.75s-9.5-1.75-9.5-1.75l-4.521-3.341
	c-0.397,0.993-1.326,1.61-2.58,1.341c-2.4-1.1-0.7-3-1.9-4.6c-2.8-1-6.1-0.2-8.9,0.3c-0.8,0.5-1.9,1-2.9,0.4c-0.7-2,2.3-0.9,2.9-1.9
	h-4.8c0.1,2.2-1,4-0.9,6.3c2.8-0.2,5.7-0.9,8.4,0.2c2,1.2,3.3,3.4,2.4,5.8c4.8,0.1,9.9-0.6,13.9,1.6c1.2,1.3,2.4,2.9,1.9,5.1
	c-0.4,2.4-1.7,4.8-4.1,6c-1.8,4-6.1,1.2-9.3,2.4c-3.7-1.4-8.1-0.9-11.1-4.1c-1.3-1.4-1.6-3.1-1.4-5c-1.2,0-2.3-0.2-3.4-0.3
	c-0.9,0.9,0.6,2.8-0.9,3.6c-1,0.4-0.8-0.7-1.5-0.7c-1.1-8.1,2.8-14.8,3.1-22.6c-1.3-4.8-5.6-9.6-10.8-10.3
	c-7.3-1.2-14.2,1.6-17.7,7.9c-4.1,12.4,6.7,22.3,15.6,29.3v0.5c-1.3,1.5-2.7,2.7-4.8,2.2c-6.3-5.3-10.9-12.1-13.7-19.2
	c-0.6-0.5,0.2-1.6-0.7-2c-2.3,0.7-4.5,1.7-6.3,3.6c-7.8,10.7-5.6,28-0.2,39.2c9,18.8,28.4,28.6,48.2,30c-0.6-2,0.9-4,2.7-5.1
	c1.2-0.1,2.4,0.1,3.1,1.2c0.3,2.9,1.6,5.6,3.8,7.5c8.5,5.6,21.5,4.9,30,0c4.5-2.3,7.4-6.9,7.5-11.8c-0.1-6.3-5.9-9.3-10.8-11.5
	c-4.9-2.4-10.4,0.3-15.1,0.5c-1.3-0.6-2.7-1.9-2.4-3.4c2-2.6,5.4-2,8.4-2.4c2.2-9.6,2.6-20.2,2.4-30.5
	c0.117-0.118,0.207-0.294,0.336-0.408c-0.392-1.666-0.686-2.792-0.686-2.792S328.75,267.25,329.5,263.5z"/>
<path fill="#00A1E4" d="M224.2,218.7c2.9,3,4.1,6.6,5,10.4c-2.8,0.8-5.6,1.7-8.1,3.3c-1.9-4.8-4.5-8.7-9.2-11.7
	C214.5,217.5,220.5,215.4,224.2,218.7z"/>
<path fill="#00A1E4" d="M217.7,232.9c0.1,2.3-0.9,4.8-1.2,7.2c-2-4.1-6.6-8.2-11.3-8.9c-3.4,0-6.5,0.7-9.3,2.2
	c-0.5-3.7,1.5-7.4,3.8-9.9c2.3-1.3,5.2-2.4,7.9-1.4C212.8,224.3,215.6,228.2,217.7,232.9z"/>
<path fill="#00A1E4" d="M243.9,241.1c2.8,7.7-1.3,15.3-6.8,20.6c-2.8,2.3-6.1,3.7-9.6,4.8c-0.6,1-0.8,2.1-0.7,3.4
	c0.7,0.6,1.3,1.5,2.4,1.2l2.2-1.7c1.8,2.8,4,5.8,5.3,9.1c-3,11.8,3.8,22.3,12.7,29c1.5,0.7,3.1,1.1,4.8,1.2
	c3.6,4.1,7.3,7.5,10.8,11.1c-0.2,1.8-2.3,4.3,0.2,5.7c1.4,0,3,0.3,3.9-1.2c0.1-0.6,0.3-1.2,0.2-1.9c1.1,0.4,2,1.5,3.1,1.9
	c4,2.1,8.2,3.8,12.5,5.1c-0.4,0.9-1.7,0.6-2.2,1.7c0.3,0.6,1,1.1,1.5,1.6c2.1,0.3,3.7-0.4,5.5-0.9c5.6,1.3,12.8-0.3,16.3,5
	c9.9,6.7,26.1,5,35.5-1.4c3.6-2.5,6.3-6.1,8.2-9.6c1.9-1.4,3.9-0.5,6.2-0.7c0.7,1.6-1.5,4.2,1,5.5c0.6-0.2,0.8,0.5,1.4,0.2
	c3.1-8.1,7.4-17.9,16.8-20.6c7.9-0.9,18-1.4,22.8,5.7c1.6,5.3-0.5,10.7-3.1,15.2c-3.7,2-9.4,2.3-12.9-0.3c-2-1.7-2.3-4.5-1.7-6.9
	c1-2.7,2.5-5.5,5.3-7c0.2-0.6-0.5-0.8-0.8-1.2c-1.5,0.5-2.5,2.9-4.3,2.2c-1.8-0.5-1.6-3.6-3.8-2.4c-1.5,2.3,1.7,3.5,2.4,5
	c-3.3,2.5-2.7,6.9-2.4,10.6c-4.6-1.1-9.1-2.4-12.3-6.3c-0.8,0.1-1,0.6-1.4,1.2c1,2.3,2.5,4.5,5.3,4.6c-2,0.5-4.5,1.2-5.8,3.6
	c-2.1,5.4,0.4,11.6,4.1,15.6c1.2,1.7,3,0.4,4.6,0.5c1.1,1.5-1.4,3.6,1.2,4.5c1.4-1.1,1.1-3.3,2.1-4.8c0.3-1.9,3.4-3.8,1.7-5.5
	c-1.2,0.8-2.4,0.3-2.9-1c-0.3-0.7-0.2-2.1-1.4-2.1c-1.1,0.4-0.8,1.7-0.5,2.4l1.7,2.4c-1,1.9-2.8,2.5-4.3,0.9
	c-2.3-2.4-4.6-5.5-3.6-9.1c0.5-3,3.4-4.8,6.2-5.5c5.1-1.1,9.5,1,13.4,3.4c3.6,5.5,8.3,12.6,4.4,19.2c-5.1,4.8-11,9.3-18.3,8.6
	c-5.4-2.8-11.6-7-12.7-13.4c-0.5-0.5-1.3-0.2-1.9-0.3c-0.6,0.8-2,1.3-1.5,2.7l0.3,0.2c-23.3,1.4-46.6,2.8-69.4,5.3
	c-0.8,1.1-1.5,1.5-1.2,3.1c0.9,0.8,1.6,2.4,3.1,1.4l3.4-1.4c-1.8,5,4,12.4-3.1,15.1c-15.2,8.9-39.6,10.6-54.3-0.7
	c-3.7-3.3-7.7-7.2-9.8-12.3c4.9-16.7,19.9-28.2,35.8-33.8c0.6-0.4,1.3-1.5,0.7-2.4c-2.1-1.5-5.2,0.7-7.2,1.2
	c-3.4,1.3-6.4,3.7-9.6,5.5c-7-7.8-10.9-17.2-16.1-26.1c-5.5-10.3-11.2-20.9-16.3-31.5c1-1,2.3-2,2.1-3.6c-2.4-1.6-5.9-0.7-8.6-1.6
	c-5.6-1.2-11-6.1-12.2-11.8c-1.2-7.6-3.8-18.8,4-23.3c2.8-1.5,5.9-3.2,9.4-2.1c4.1,1.1,8.2,5.4,8.9,9.8c1.1,4.7-0.6,9.1-4.1,12
	c-2,1.3-4.3,2.6-7,1.7c-1.6-0.4-2-2.2-2.6-3.4v-4.5l1.7-0.3v-0.5l-5.1-4.5c-0.8-0.4-1.1,0.6-1.6,0.9c-0.5,1.1,1.6,1.7,1.6,2.9
	c0.1,4.9,0.1,10.9,5.6,13.2c4.6,1.7,8.2-1.5,11-4.8c1.6-0.1,2.9,0.4,4.1,1.2c0.9,1.7,2.3,3.4,1.4,5.5l-1.4,1.7
	c0.9,1.5,1.7-0.1,2.6-0.5c1.4-0.8,1.4-2.5,1-3.8c-1.1-2.4-3.8-4.5-5.8-6c1.7-1.3,1.8-3.2,2.7-4.8c1.9,2.4,5.3,2.3,8.1,1.9
	c2.6-0.8,4.9-2.4,7.2-4.1c0.6,0.9,0.5,2.8,2.2,2.7c1.5-2.1,0.2-4.8-0.7-6.7c-0.5-0.8-1.2-0.8-2-0.8c-1.8,1.8,0,4.8-3.3,5.3
	c-2,0.7-5.1,1.8-7,0c-2.1-2.8-4-6-2.9-9.8c1.8-5.2,7.9-6.3,12.8-7C238.1,232,242.4,236.3,243.9,241.1z"/>
<path fill="#FFFFFF" d="M260.4,240.3c-3.3,3.6-4.4,8.6-3.1,13.5c-0.8,0.1-1.5,0.6-2.4,0.5c-1.7-2.3-2.7-5.2-1.9-8.2
	C254.1,243.2,257,239.7,260.4,240.3z"/>
<path d="M314.7,255.7c-0.4,0.4-1,0.2-1.5,0.2c-0.8-0.2-1.4-1.3-0.5-1.9C313.6,254.1,314.3,255,314.7,255.7z"/>
<path fill="#FFFFFF" d="M301.2,258.1c0.5,1.6,0.5,4.4-1.9,4.3c-1.9,0.7-3.4,1.4-4.8-0.7l-3.8-0.2c0.1-1.6-0.7-4.6,1.6-5.1
	C295.4,256.1,299.2,255.2,301.2,258.1z"/>
<path d="M331.2,261.5c0.1,4.5-0.6,8.9-4.3,11.7c-2,0.8-1.9-1.2-2.9-2.1c0.6-3.6,5.4-6.7,2.9-10.8c-3.1-1.7-6.7-1.8-10.1-2.7
	c-1.2-0.2-3.3,0.6-3.6-0.7C319.6,257.4,327.3,255.9,331.2,261.5z"/>
<path d="M164.4,264.1c5.4,11.2,16.6,19.9,28.1,22.8c-0.1,0.2,0.1,0.3,0.2,0.5c-11.7-2-25.7-11.7-30.7-24.3c0.2-0.9-0.4-2.2,0.5-2.6
	C164.6,260.7,163.4,263,164.4,264.1z"/>
<path fill="#FFFFFF" d="M316.6,265.3c0.7,1.7,0.7,3.4,0,5c-0.7,0.8-1.1,2-2.2,2.4c-0.2-1.4-1.8-2.5-2.9-3.3
	c-2.9-0.8-5.7,0.2-7.9,1.9c-1,0.7-1.4,1.7-1.2,2.9c-2.8,0.3-6.2-0.3-7.7-2.9c-0.8-1.2-0.5-3.2-0.2-4.6c4.4-4.5,11.3-4.7,17.8-4
	C314,262.8,315.5,264,316.6,265.3z"/>
<path d="M257.1,267.5c0.5,1.5-3.6,1.8-0.8,3.3c8.7,16.2,27.8,19.3,45.2,20.7c0.7,0.3,1.2-0.5,1.4-1c0.2-1-0.4-2.2,0.5-2.9
	c2.2,0.7,2.3,3,2.9,4.8c0.3,1-0.5,1.7-1,2.2c-1.8,0.3-1.9-2-3.4-2.4c-3.8,0-7.6,0-11-1l-0.7,1.2c-2.4,8.8,0.2,22.7-11.5,24.7
	c-11.1-0.4-19.5-11.8-22.6-20.8c-1.6-6.6-1.1-14.6,0.5-20.9c-0.5-1.9-1.8-3.4-2.7-5.1c-0.6,0.5-1.6,0.2-2.4,0.3
	c-1.3-2,1.2-3,2.4-3.6C255,267.1,256.3,266.6,257.1,267.5z"/>
<path fill="#00A1E4" d="M252,305.9l-0.2,0.2c-9.3-5.2-12.9-15.5-11.8-25.9c0.6-1.5,0.8-3.2,1.7-4.6
	C241.7,286.9,245.4,297.1,252,305.9z"/>
<path d="M194.2,287.6c-0.2,0.3-0.5,0.2-0.7,0.3C193.6,287.6,193.9,287.6,194.2,287.6z"/>
<path d="M204,295.1c-5.9,3.6-13.9,5.2-21.1,3.1c-0.5-0.6-1.4-1.2-0.7-1.9c1.4-1.6,2.3,1,3.6,1.2C192,298.5,199.1,298,204,295.1z"/>
<path fill="#ED1847" d="M285.9,302.5c-0.9,4.4-1.7,10.5-6.5,11.5c-5.8,0.9-9.6-2.8-12-6.9c-0.2-2.3,0-4.5,1.7-5.8
	C274.2,298.5,281,300.3,285.9,302.5z"/>
<path d="M284.2,303c-2.4,0.6-5.3,0.5-6.7,2.9c-0.8,0.2-1.4-0.3-1.5-1c0.2-1.5,1.9-1.6,2.9-2.2L284.2,303z"/>
<path d="M203.3,308.3c-0.6,0.6-1.8,1-2.9,1.2c-2.7,0.6-6,0.1-7.7-1.7l0.3-0.7C196.1,308.2,199.9,310,203.3,308.3z"/>
<path d="M339.9,325.8c0.5,1.4,0.1,3-1.5,3.3c-1.2-0.3-0.4-1.9-0.7-2.6c-1.3-1.6-3.2-1.8-4.8-2.6c-0.7,1.3-0.4,3.4-2.4,3.8
	c-1.3,0.7-3.7-1.5-3.4,1.2c-0.7,1.7-2.5,2.8-4.3,3.1c-3.5,0.6-6.5-0.5-8.4-3.3c-0.2-0.9-0.4-1.9,0.7-2.2c1.1,0.4,2.5,1.8,3.4,2.6
	c1.5,0.7,3.2,1.8,5,1c2.1-0.5,3.2-2.7,3.6-4.6c0-1.5-0.6-3.1-2.1-3.8c-2.6-1.4-6.1-0.6-8.7,0.2c-0.4-0.7-0.2-2.1,0.8-2.1
	C325.6,319.5,332.8,322.5,339.9,325.8z"/>
<path fill="#00A1E4" d="M412.8,336.8c1.1,4.3,0.4,9.3-3.1,12c-1.1,0.8-2.9,0.5-4.1,0.3c-1.7-1.7-1.5-4.5-2.6-6.5
	c-0.3-4.5-9.6-7.5-3.9-12c0.3-0.9,0.3-1.9,1-2.7C405.8,327,410.2,332.6,412.8,336.8z"/>
<path fill="#00A1E4" d="M403.2,351.9c0.3,2.4-0.4,4.4-1.2,6.3c-4.3,2-9.1,5.1-14.4,2.8c3.9-3.8,7.5-8.8,5.3-14.8
	c-1.2-3.6-3.2-6.8-5-10.1c2.7,0.4,5.3-2,7.6-0.5C400.6,339.6,402.4,345.8,403.2,351.9z"/>
<path d="M420.2,362.5c-0.3,6.7-6.9,12.8-12.7,15.3c-9.1,3.8-19.2,5.8-30,4.8v-0.4c15.9-1.7,34.8-3.1,41.3-20.2
	C419.3,361.4,419.9,362.1,420.2,362.5z"/>
<path fill="#FFFFFF" d="M266.4,385.5c9.5-1.2,19.1-3.5,25.7-10.8c2.6,7.2,6.3,15.4,3.1,23.5c4.3,1.7,8.4,5.8,9.4,10.4
	c0.6,2.9,0.6,6.3,0.2,9.3c-5.3,9.2-14,17.6-23.7,21.1c-0.6-5.7,2.4-12.4-0.8-17.7l-0.7-0.7c-0.8,0.6-0.5,2-0.2,2.8
	c-3.6-3.8-7.2-7.6-10.8-11.5c-1.2-0.5-1.7,0.9-2.2,1.5l0.5,2.8c-15.6,1.2-29.1-6.4-38.2-19.2c-5.6-8.9-8.3-20.2-6-31.2
	C230.4,382.8,248.9,386.9,266.4,385.5z"/>
<path fill="#FFFFFF" d="M197.3,380.5c8.3,9.7,2.5,25.2,8.6,35.7c4.7,13,22.4,25.4,10.8,40.4l-2.4,1.6c0.6-5.1,1.6-11.9-1.9-16.5
	c-1.4-1.8-3.2-3.6-5-5.1c-0.3,0.3-0.7,0.6-0.5,1c5.2,4.3,7.7,10,6.5,16.6c-0.9,2-0.5,5.1-2.7,6.2c-6,3.7-14.8,4.4-21.3,1.2
	c-9.8-5.6-18.7-13.3-28.1-19.9c-9.6-12-14.1-26.9-13.2-43.2c1.1-10.1,6.4-20.4,16.3-25C174.9,367.6,190,370.2,197.3,380.5z"/>
<path fill="#00A1E4" d="M303.9,384.1c1.6,2.7,1,7.1,0,9.6c-1.2,1.5-2.7,3.1-4.6,3.1c2-5.7-0.4-11.8-1.7-16.8
	C300.1,380.4,303,381.4,303.9,384.1z"/>
<path d="M192,397.5c4.1,7,2.8,16.3,5.8,23.8c1-0.2,1.3-2.2,2.1-0.7c0.3,2.5,0.6,5.7-0.2,8.1c-1.4-1.5,0.9-5.4-1.9-5.5
	c-4.1-5.9-3.1-13.9-4.6-20.9c-1.8-7.9-8.7-15.5-16.3-18.5c-6.1-2-13.2-1.5-18.7,1.5c0.8-1.5,2.9-1.9,4.3-2.9
	c6.3-2.6,14.8-1.7,19.9,2.9C186.2,388.7,189.8,393.1,192,397.5z"/>
<path d="M381.4,393.4c-7.3,1.7-15.5,0.4-22.1-2.1c-1.6-1.3-3.7-2-3.4-4.6c1.4-0.6,2.1,1.8,3.4,1.9
	C365.7,392.6,373.5,393.2,381.4,393.4z"/>
<path fill="#FFFFFF" d="M220.1,387.7c2.1,9.3,9.7,16.4,15.4,24.2H235c-5.7-4.8-10.8-10.8-13.5-17.3c-0.4-0.2-0.8-1.4-1.4-0.7
	c-1.4,0.8-0.4,2.3,0,3.1c3.3,6.6,8.8,12.8,15.1,16.8c-3.8-0.9-7.1-4.4-10.3-7.4c-1-0.8-1.8-2.9-3.1-2.4c1.8,3.4,5.3,6.1,7.7,9.4
	c-5.6,3.2-12,8.1-14.7,14.1c-6.6-9.1-10.4-19.8-9.3-32.4C208.5,390.3,213.8,386.8,220.1,387.7z"/>
<path d="M361,404c-5.4,1.1-10.9-1.1-14.2-6l-0.9-2.4C349.8,400.6,355.4,402.6,361,404z"/>
<path fill="#FFFFFF" d="M350.7,421.8c2.3,5.2,4.3,10.6,3.8,17c-4.4-9.7-12.7-21.6-24.5-23.3c-19.5-2.1-25.6,20.1-36.2,31.7
	c0.1,0.4,0.6,0.2,0.9,0.2c7-8.3,11.7-17.6,19.5-25.6c6.1-5.1,15.8-5.8,22.8-2.2c8.8,4.2,13.6,13.5,17,21.6
	c-0.3,10.7-3.8,20.5-12.7,27.1c-12.6,5.4-24.5,12.3-37.2,17.3c-9,2.4-19.5,1.5-26.4-4.8c-3.5-3.5-6.2-7.6-5-12.7
	c0.9-4,4.4-7.9,8.1-9.6c0.2-0.5,0.8-0.8,0-1.2c-5.2,2.3-9.9,7.7-10.3,13.4c-3.9-8.4,0.7-17.2,5-24.2c6.6-7.6,16.5-8.1,22.6-15.6
	c8.9-10.5,16.5-28.7,33.6-25.2C339.8,407.7,347,414.1,350.7,421.8z"/>
<path d="M204.5,433.5c1-0.3-0.1-1.8,1-1.9c0.8,1.6-0.5,2.9-0.8,4.3c-2.4-0.6-0.1-5.7-2.8-5h-0.8c-0.2-1.2,0.4-2.6,1.2-3.6
	C204.5,428.4,203.1,431.7,204.5,433.5z"/>
<path d="M252.3,437.1c10,39.2,12.8,83.1,9.6,126c-1,7.4-1.9,14.7-3.9,21.6c1.3-16.4,3.4-33.5,2.9-51.1c0.3-34.5-4-67.4-12-98.2
	C250.3,434,251.9,435.8,252.3,437.1z"/>
<path d="M194.9,439.5c0.1,0.5,0,0.9-0.5,1.2c-7.7-2.1-16.6-2-24.9-1.9c8-1.4,16.9-0.5,24.9,0.2L194.9,439.5z"/>
<path d="M187.9,441c-4.4-0.3-8.5,1.2-12.4,2.6c-0.8,0.4-1.3,2.2-2.4,1.2c-1.4-2.6,2.1-2.4,3.3-3.4C180,440.6,184.2,440.1,187.9,441z
	"/>
<path d="M289.5,452.2c-0.5-1.2,0.9-2.3-0.5-3.1c-1.5,1.7-1.9,4.1-3.4,5.5c-0.1-2.5,1.6-5.5,4.1-6.7c0.4,0.4,0.3,1.4,1.2,1.2l1.4-3.1
	C292.1,447.9,291.1,450.9,289.5,452.2z"/>
<path d="M283.9,453.7c0.9,1.4-1.9,1-1.4,2.6H282C281.8,455.1,282.2,453.1,283.9,453.7z"/>
<path d="M242.7,463.5c0.4,6.2-4.1,11.6-9.4,14.2c-7.4,3.7-17,3.4-25.7,2.6c12.8-0.1,27.9-0.7,32.7-14.1l0.2-7
	C242.2,460,242.1,462,242.7,463.5z"/>
<path d="M317.1,468.8v0.5c-2.9-0.6-5.6-2.6-8.4-3.9c-3.7-1-7.4-2.8-11.6-2.1c-0.9-0.4-0.3-1.3-0.4-1.9l0.9-0.8
	C305.1,461,311,465.1,317.1,468.8z"/>
<path d="M317.1,473.1c-0.1,0.3,0,0.6-0.3,0.7c-1.6-0.5-2.5-2.5-4.1-3.1c-3-0.5-5.3-2.8-8.6-2.6c-0.4-0.3-0.2-0.8-0.2-1.2
	c1-1.1,2.2,0,3.3,0.2C310.6,468.9,314.1,470.4,317.1,473.1z"/>
<path d="M249.9,492.8c0,0.8-0.8,2.2-2,2.4c-5.6,1.2-11.4,0.2-16.3-1.9c5.1,0.9,12.9,2.8,17.1-1.7
	C249.4,491.4,249.6,492.3,249.9,492.8z"/>
<path d="M273.4,498.3c2.3,34.8-3,68.7-11.8,100.1l-0.5,0.2c1-4.7,1.9-10,3.2-14.8c4.9-24.9,8.3-50.7,7.6-77.6
	c-0.5-3.9-0.7-7.9-2.1-11.5c-0.2-0.8,0.4-1.4,0.9-1.9C273.4,493.6,272.5,496.2,273.4,498.3z"/>
<path d="M309.6,501.2c-2.7,2.3-6,3.3-9.1,4.6c-5.6,0.2-14.5,3.2-18.2-2.7v-0.9c0.7-0.3,1.6,1.5,2.6,1.9c8.3,2.2,17.3,0.4,24.5-3.1
	L309.6,501.2z"/>
<path d="M249.1,508.4c0.2,0.5-0.2,0.7-0.4,1c-3-0.1-6.3-0.5-7.7-3.2C243.5,507.6,246.4,508.5,249.1,508.4z"/>
<path d="M280.6,516.8c3,2.1,7.2,3,11,1.9c-0.7,0.6-1.8,1.2-2.9,1.5c-3.7,0.4-7.2-0.4-9.3-3.4v-1.2
	C280.2,515.4,280.2,516.4,280.6,516.8z"/>
<path d="M378.5,568.6c0.9,2.1-1.7,3-2.6,4.1c-3.9,1.8-8.1,2.9-12.5,3.1c-1.7,2.4,1,4.5,0.5,6.8c-1,0-1.8-0.6-2.2-1.5
	c-0.6-1.5,0.2-3.6-0.7-5c-2.4,0.3-5.7,0.6-7-1.2c-0.2-0.7,0.7-1,1-1.5c1.2,0,1.4,2.1,2.9,2.2c1.2-0.2,3,0.6,3.8-0.7
	c0.4-1.8,0.7-3.8,1.9-5.1c0.4,1.6-0.7,3.7,0,5.1c4.5-0.5,10-0.3,12-4.8c-0.2-3.5-4.2-3.1-6.5-4.1c-4.3-1.1-8.9-0.1-12.9,1
	c-0.4,1.6-2.1,1.9-3.4,2.4h-0.7c0.5-3.1,4.6-3,7.2-3.6C365.7,564.5,373.6,564.5,378.5,568.6z"/>
<path d="M415,575.4c0.3,0.4,0.2,0.9,0.2,1.4c-0.4,0.6-1,0.9-1.7,0.7c-4.2-4.2-10.8-1.3-15.3,0.3c-0.7,0.8,0.8,1.7,0,2.6
	c-1.7,1.6-4.2,2-6.5,1.4c-0.6-0.7-1.2-0.1-1.9,0c-1.3,0.9-3,2.4-1.9,4.1c0.4,0.5,0.1,1.3,0.2,1.9c-0.3,0.5-1,0.2-1.4,0.3
	c-2.2-1.8-2.2-4.4-2.4-7c-2.1-0.5-4.2,1.1-6.3,0.5c-3.4-0.4-7.2,1.8-10.5,0c-0.3-1,1-1.7,1.6-2.2l-0.4-0.7c2.3-2.4,6.1-3.3,9.6-2.9
	c-2.1,1.4-5.2,0.2-7,2c0.8,1,2.1,1,3.4,0.9v0.5c-1.7-0.3-2.9,0.4-4.1,1.2c1.4,2.6,4.6,0.2,6.9,0.2c1.4-1.3,1.8-3.9,4.1-4
	c-0.4,1-2,2.4-0.5,3.3c2.5,0.5,4-1.5,5.8-2.6c0.2,0.4,1,0.6,0.7,1.2c-1.5,0.7-1.1,2.2-1.2,3.6c0.3,0.2,0.5,0.6,1,0.5
	c1.9-1.6,3.6-4.5,5.7-4.8c-0.1,0.9-1.1,1.5-1.4,2.4c0.4,1.4,2.1,1.3,3.1,0.9c0.6-0.4,0.9-0.9,0.7-1.7c-0.3-0.6-1.1-0.4-1.2-1.2
	c5.9-2.9,12.8-4,19.7-3.8L415,575.4z"/>
<g>
	<path d="M340.413,577.64c0-2.496,2.04-4.536,4.56-4.536c2.508,0,4.536,2.04,4.536,4.536c0,2.52-2.028,4.56-4.536,4.56
		C342.453,582.2,340.413,580.16,340.413,577.64z M348.789,577.64c0-2.208-1.608-3.936-3.816-3.936c-2.22,0-3.84,1.728-3.84,3.936
		c0,2.232,1.62,3.96,3.84,3.96C347.181,581.6,348.789,579.872,348.789,577.64z M347.277,578.468c-0.108,1.092-1.056,1.764-2.1,1.764
		c-1.524,0-2.52-1.14-2.52-2.628c0-1.5,0.936-2.604,2.484-2.604c1.092,0,1.968,0.624,2.136,1.716h-0.648
		c-0.132-0.72-0.756-1.188-1.476-1.188c-1.2,0-1.8,0.936-1.8,2.064c0,1.092,0.648,2.112,1.824,2.112c0.708,0,1.356-0.48,1.452-1.236
		H347.277z"/>
</g>
<g>
	<path d="M422.281,578.714v0.744h-3.036v-0.744H422.281z"/>
	<path d="M429.721,575.918h-2.184v-0.504c1.284-0.084,2.088-0.216,2.34-1.668h0.612v8.46h-0.768V575.918z"/>
	<path d="M434.185,580.347c0.18,0.9,0.708,1.38,1.644,1.38c2.004,0,2.28-2.232,2.352-3.756l-0.024-0.024
		c-0.516,0.852-1.272,1.32-2.28,1.32c-1.584,0-2.616-1.08-2.616-2.724c0-1.596,0.876-2.796,2.724-2.796
		c2.28,0,2.964,1.908,2.964,4.272c0,2.868-1.296,4.356-3.084,4.356c-1.32,0-2.328-0.648-2.46-2.028H434.185z M434.028,576.566
		c0,1.284,0.72,2.052,1.956,2.052c1.2,0,1.896-0.96,1.896-2.1c0-1.248-0.708-2.1-1.896-2.124
		C434.688,574.418,434.028,575.247,434.028,576.566z"/>
	<path d="M440.856,580.347c0.18,0.9,0.708,1.38,1.644,1.38c2.004,0,2.28-2.232,2.352-3.756l-0.024-0.024
		c-0.516,0.852-1.272,1.32-2.28,1.32c-1.584,0-2.616-1.08-2.616-2.724c0-1.596,0.876-2.796,2.724-2.796
		c2.28,0,2.964,1.908,2.964,4.272c0,2.868-1.296,4.356-3.084,4.356c-1.32,0-2.328-0.648-2.46-2.028H440.856z M440.701,576.566
		c0,1.284,0.72,2.052,1.956,2.052c1.2,0,1.896-0.96,1.896-2.1c0-1.248-0.708-2.1-1.896-2.124
		C441.36,574.418,440.701,575.247,440.701,576.566z"/>
	<path d="M446.82,573.831h5.388v0.72c-2.424,2.736-3.336,6-3.432,7.656h-0.84c0.168-2.448,1.728-5.616,3.348-7.608h-4.464V573.831z"
		/>
</g>
<g>
	<path d="M306.943,599.1l1.531-7.2h0.68l-1.407,6.62h3.86l-0.124,0.58H306.943z"/>
	<path d="M312.503,599.1l1.101-5.18h0.6l-1.101,5.18H312.503z M313.814,592.79l0.189-0.89h0.66l-0.189,0.89H313.814z"/>
	<path d="M319.058,595.55c-0.046-0.77-0.479-1.23-1.279-1.23c-1.23,0-1.978,1.12-2.208,2.2c-0.231,1.09,0.037,2.18,1.277,2.18
		c0.89,0,1.563-0.53,1.885-1.39h0.64c-0.455,1.15-1.34,1.93-2.641,1.93c-1.65,0-2.127-1.19-1.802-2.72
		c0.306-1.44,1.413-2.74,2.962-2.74c1.19,0,1.849,0.57,1.774,1.77H319.058z"/>
	<path d="M321.083,596.65c-0.248,1.12,0.154,2.05,1.304,2.05c0.78,0,1.481-0.43,1.823-1.19h0.67c-0.508,0.98-1.288,1.73-2.608,1.73
		c-1.66,0-2.129-1.18-1.804-2.71c0.321-1.51,1.484-2.75,2.964-2.75c1.42,0,2.075,1.01,1.67,2.87H321.083z M324.57,596.15
		c0.215-1.01-0.171-1.83-1.251-1.83c-1.06,0-1.801,0.85-2.129,1.83H324.57z"/>
	<path d="M326.353,599.1h-0.6l1.101-5.18h0.6l-0.153,0.72c0.588-0.51,1.133-0.86,1.853-0.86c0.63,0,1.167,0.2,1.422,0.74
		c0.171,0.37,0.099,0.76,0.007,1.19l-0.721,3.39h-0.6l0.719-3.38c0.198-0.93-0.083-1.4-1.042-1.4c-0.74,0-1.352,0.48-1.655,1.01
		c-0.19,0.33-0.262,0.62-0.338,0.98L326.353,599.1z"/>
	<path d="M332.007,597.48c0,0.89,0.391,1.22,1.291,1.22c0.87,0,1.378-0.46,1.484-0.96c0.319-1.5-3.226-0.44-2.792-2.48
		c0.183-0.86,0.984-1.48,2.134-1.48c1.12,0,1.752,0.46,1.654,1.63h-0.61c0.06-0.8-0.418-1.09-1.168-1.09
		c-0.76,0-1.247,0.36-1.359,0.89c-0.3,1.41,3.208,0.53,2.784,2.52c-0.21,0.99-1.211,1.51-2.431,1.51c-1.22,0-1.754-0.78-1.596-1.76
		H332.007z"/>
	<path d="M337.204,596.65c-0.248,1.12,0.154,2.05,1.304,2.05c0.78,0,1.481-0.43,1.823-1.19h0.67c-0.508,0.98-1.288,1.73-2.608,1.73
		c-1.66,0-2.129-1.18-1.804-2.71c0.321-1.51,1.484-2.75,2.964-2.75c1.42,0,2.075,1.01,1.67,2.87H337.204z M340.69,596.15
		c0.215-1.01-0.171-1.83-1.251-1.83c-1.06,0-1.801,0.85-2.129,1.83H340.69z"/>
	<path d="M347.403,591.9h0.6l-1.531,7.2h-0.6l0.193-0.91h-0.02c-0.495,0.68-1.363,1.05-2.023,1.05c-1.67,0-2.087-1.19-1.762-2.72
		c0.308-1.45,1.313-2.74,2.893-2.74c0.73,0,1.397,0.34,1.644,0.97L347.403,591.9z M345.139,594.32c-1.24,0-2.043,1.05-2.27,2.35
		c-0.266,1.3,0.329,2.03,1.339,2.03c1.13,0,1.954-0.96,2.22-2.21C346.676,595.32,346.229,594.32,345.139,594.32z"/>
	<path d="M352.579,599.12c-0.146,0.03-0.426,0.12-0.715,0.12c-0.59,0-0.865-0.26-0.701-1.03l0.806-3.79h-0.73l0.106-0.5h0.73
		l0.306-1.44h0.6l-0.306,1.44h0.97l-0.106,0.5h-0.97l-0.754,3.55c-0.108,0.51-0.135,0.73,0.365,0.73c0.16,0,0.336-0.03,0.505-0.07
		L352.579,599.12z"/>
	<path d="M353.543,599.1l1.53-7.2h0.6l-0.583,2.74c0.588-0.51,1.133-0.86,1.853-0.86c0.63,0,1.167,0.2,1.423,0.74
		c0.171,0.37,0.099,0.76,0.007,1.19l-0.721,3.39h-0.6l0.718-3.38c0.198-0.93-0.082-1.4-1.042-1.4c-0.74,0-1.352,0.48-1.655,1.01
		c-0.19,0.33-0.262,0.62-0.338,0.98l-0.593,2.79H353.543z"/>
	<path d="M359.733,599.1h-0.6l1.101-5.18h0.6l-0.207,0.97h0.02c0.507-0.83,1.056-1.11,1.926-1.11l-0.138,0.65
		c-1.344-0.03-1.917,0.97-2.163,2.13L359.733,599.1z"/>
	<path d="M362.465,596.51c0.321-1.51,1.38-2.73,2.98-2.73c1.62,0,2.143,1.21,1.82,2.73c-0.349,1.64-1.53,2.73-2.98,2.73
		C362.969,599.22,362.08,598.32,362.465,596.51z M365.331,594.32c-1.26,0-1.987,1.07-2.226,2.19c-0.274,1.29,0.145,2.19,1.294,2.19
		c1.26,0,1.99-1.08,2.226-2.19C366.875,595.29,366.601,594.32,365.331,594.32z"/>
	<path d="M372.425,593.92h0.6l-1.101,5.18h-0.6l0.153-0.72c-0.396,0.36-0.943,0.86-1.853,0.86c-1.38,0-1.664-0.83-1.434-1.91
		l0.725-3.41h0.6l-0.723,3.4c-0.189,0.89,0.097,1.38,1.037,1.38c0.99,0,1.754-0.82,1.997-1.96L372.425,593.92z"/>
	<path d="M378.476,593.92h0.6l-0.995,4.68c-0.295,1.39-1.017,2.62-2.987,2.62c-1.52,0-1.965-0.87-1.873-1.49h0.64
		c0.015,0.78,0.638,0.95,1.348,0.95c1.64,0,2.12-1.22,2.342-2.41c-0.514,0.63-1.326,0.97-2.056,0.97c-1.58,0-2.036-1.29-1.728-2.74
		c0.325-1.53,1.248-2.72,2.918-2.72c0.66,0,1.372,0.37,1.577,1.05h0.02L378.476,593.92z M376.641,594.32
		c-1.01,0-1.916,0.73-2.202,2.03c-0.326,1.3,0.031,2.35,1.271,2.35c1.09,0,1.962-1,2.211-2.17
		C378.187,595.28,377.771,594.32,376.641,594.32z"/>
	<path d="M379.484,599.1l1.53-7.2h0.6l-0.583,2.74c0.588-0.51,1.133-0.86,1.853-0.86c0.63,0,1.167,0.2,1.423,0.74
		c0.171,0.37,0.098,0.76,0.007,1.19l-0.721,3.39h-0.6l0.718-3.38c0.198-0.93-0.083-1.4-1.042-1.4c-0.74,0-1.352,0.48-1.655,1.01
		c-0.19,0.33-0.262,0.62-0.338,0.98l-0.593,2.79H379.484z"/>
	<path d="M388.154,599.1l1.53-7.2h0.68l-1.53,7.2H388.154z"/>
	<path d="M391.634,599.1l0.187-0.88h-0.73l-0.187,0.88H391.634z"/>
	<path d="M393.444,599.1l1.53-7.2h1.04l1.01,6.35h0.02l3.67-6.35h1.03l-1.53,7.2h-0.68l1.365-6.42h-0.02l-3.725,6.42h-0.64
		l-1.006-6.42h-0.02l-1.364,6.42H393.444z"/>
	<path d="M402.014,599.1l0.187-0.88h0.73l-0.188,0.88H402.014z"/>
	<path d="M404.554,599.1l1.53-7.2h2.63c1.87,0,2.152,0.93,1.923,2.01c-0.342,1.61-1.857,2.01-3.188,2.01h-1.54l-0.676,3.18H404.554z
		 M407.594,595.34c1.27,0,2.115-0.26,2.375-1.48c0.191-0.9-0.287-1.38-1.567-1.38h-1.76l-0.608,2.86H407.594z"/>
	<path d="M409.615,599.1l0.187-0.88h0.73l-0.187,0.88H409.615z"/>
	<path d="M412.922,596.95c-0.165,1.29,0.596,1.76,1.696,1.76c1.29,0,1.979-0.7,2.146-1.49c0.474-2.23-4.23-0.75-3.629-3.58
		c0.212-1,1.24-1.93,2.85-1.93c1.62,0,2.222,0.98,1.963,2.15h-0.65c0.234-1.1-0.516-1.57-1.436-1.57c-1.38,0-2.061,0.85-2.098,1.59
		c-0.085,1.86,4.279,0.52,3.687,3.31c-0.281,1.32-1.417,2.1-3.076,2.1c-1.5,0-2.444-0.78-2.113-2.34H412.922z"/>
	<path d="M418.505,599.1l0.188-0.88h0.73l-0.187,0.88H418.505z"/>
	<path d="M427.386,591.71c-1.243,1.38-2.167,3-2.524,4.68c-0.353,1.66-0.081,3.25,0.548,4.62h-0.51
		c-0.777-1.52-1.121-2.77-0.717-4.67c0.389-1.83,1.308-3.19,2.694-4.63H427.386z"/>
	<path d="M427.185,599.1l1.53-7.2h2.6c1.69,0,2.205,0.73,1.975,1.81c-0.212,1-0.878,1.45-1.479,1.55l-0.004,0.02
		c0.958,0.15,1.301,0.84,1.1,1.79c-0.319,1.5-1.412,2.03-2.782,2.03H427.185z M427.988,598.52h1.73c1.5,0,2.243-0.2,2.508-1.45
		c0.253-1.19-0.541-1.41-1.82-1.41h-1.81L427.988,598.52z M428.72,595.08h1.72c1.42,0,1.986-0.5,2.171-1.37
		c0.191-0.9-0.279-1.23-1.769-1.23h-1.57L428.72,595.08z"/>
	<path d="M434.395,599.1h-0.6l1.101-5.18h0.6l-0.206,0.97h0.02c0.507-0.83,1.056-1.11,1.926-1.11l-0.138,0.65
		c-1.344-0.03-1.916,0.97-2.163,2.13L434.395,599.1z"/>
	<path d="M441.706,593.92h0.6l-1.101,5.18h-0.6l0.153-0.72c-0.396,0.36-0.943,0.86-1.853,0.86c-1.38,0-1.664-0.83-1.434-1.91
		l0.725-3.41h0.6l-0.723,3.4c-0.189,0.89,0.097,1.38,1.037,1.38c0.99,0,1.754-0.82,1.997-1.96L441.706,593.92z"/>
	<path d="M443.349,597.48c0.001,0.89,0.391,1.22,1.291,1.22c0.87,0,1.377-0.46,1.484-0.96c0.319-1.5-3.227-0.44-2.793-2.48
		c0.183-0.86,0.984-1.48,2.135-1.48c1.12,0,1.752,0.46,1.653,1.63h-0.61c0.06-0.8-0.418-1.09-1.168-1.09
		c-0.76,0-1.247,0.36-1.359,0.89c-0.3,1.41,3.207,0.53,2.784,2.52c-0.21,0.99-1.211,1.51-2.431,1.51c-1.22,0-1.754-0.78-1.596-1.76
		H443.349z"/>
	<path d="M448.349,597.48c0.001,0.89,0.391,1.22,1.291,1.22c0.87,0,1.377-0.46,1.484-0.96c0.319-1.5-3.227-0.44-2.793-2.48
		c0.183-0.86,0.984-1.48,2.135-1.48c1.12,0,1.752,0.46,1.653,1.63h-0.61c0.06-0.8-0.418-1.09-1.168-1.09
		c-0.76,0-1.247,0.36-1.359,0.89c-0.3,1.41,3.207,0.53,2.784,2.52c-0.21,0.99-1.211,1.51-2.431,1.51c-1.22,0-1.754-0.78-1.596-1.76
		H448.349z"/>
	<path d="M453.545,596.65c-0.248,1.12,0.154,2.05,1.305,2.05c0.78,0,1.481-0.43,1.823-1.19h0.67c-0.508,0.98-1.288,1.73-2.607,1.73
		c-1.66,0-2.129-1.18-1.804-2.71c0.321-1.51,1.484-2.75,2.964-2.75c1.42,0,2.076,1.01,1.67,2.87H453.545z M457.032,596.15
		c0.215-1.01-0.171-1.83-1.251-1.83c-1.06,0-1.8,0.85-2.129,1.83H457.032z"/>
	<path d="M458.305,599.1l1.531-7.2h0.6l-1.53,7.2H458.305z"/>
	<path d="M461.129,597.48c0.001,0.89,0.391,1.22,1.291,1.22c0.87,0,1.377-0.46,1.484-0.96c0.319-1.5-3.227-0.44-2.793-2.48
		c0.183-0.86,0.985-1.48,2.135-1.48c1.12,0,1.752,0.46,1.653,1.63h-0.61c0.06-0.8-0.418-1.09-1.168-1.09
		c-0.76,0-1.247,0.36-1.359,0.89c-0.3,1.41,3.207,0.53,2.784,2.52c-0.21,0.99-1.211,1.51-2.431,1.51c-1.22,0-1.754-0.78-1.596-1.76
		H461.129z"/>
	<path d="M464.869,601.01c1.244-1.38,2.168-3,2.525-4.68c0.353-1.66,0.081-3.25-0.548-4.62h0.51c0.777,1.52,1.121,2.77,0.717,4.67
		c-0.389,1.83-1.308,3.19-2.694,4.63H464.869z"/>
</g>
<path fill="#FFFFFF" d="M331.2,303.7c4.5,0.2,8.3,2.1,12,4.3c3.6,2.8,7.6,6.3,7,11.3c6.4-4,9.2-11.2,12-17.5
	c11.8-29.9,5.1-66.4-16.6-89.5c-7.4-5.1-15.3-9-23.5-12.3c-12.5-4.1-26.1-9.2-40.3-5.7c-4.7,0.8-7.2,5.3-8.7,9.3
	c-1.7,14,14.9,20.8,24.3,26.4c6.3,2.8,12.2,6.2,19.2,7.5c3.2,1,4.1-4.1,7.4-2c0.9,0.7,2.1,1.6,2.4,2.7c0.9,1.7-0.4,2.9-1.4,4.1
	c-7.5-1-14.3-3.7-21.1-6l-10.6,3.6c7.7,1.8,15.3,3.9,22.8,6.4c9.3,3.8,19.3,5.7,27.1,13c0.2,0.8-0.5,1.5-0.9,1.9
	c-3,0.6-4.7-1.7-6.8-3.1c-4.4-5.6-12-6.8-18.2-9.8c-9-2.7-17.7-6.8-27.4-7.2l1.5,1.9c0.6,0.5-0.3,1.7,0.7,2.1
	c3.2-0.5,5.1,2.3,7.4,3.9c2.9-1.5,6.6-0.4,9.6,0c1.7,0.8,2.2,2.5,2,4.3c-0.031,0.125-0.075,0.243-0.121,0.359L315.5,257
	c0,0,7.75,1,9.5,1.75s5.25,1,4.5,4.75s-0.75,6.5-0.75,6.5s0.294,1.127,0.686,2.792c0.091-0.08,0.199-0.134,0.364-0.092
	C333.9,281.6,333.3,294.4,331.2,303.7z"/>
</svg>
